<?xml version="1.0" standalone="no"?>
<!DOCTYPE svg PUBLIC "-//W3C//DTD SVG 20010904//EN"
 "http://www.w3.org/TR/2001/REC-SVG-20010904/DTD/svg10.dtd">
<svg version="1.0" xmlns="http://www.w3.org/2000/svg"
 width="96.000000pt" height="96.000000pt" viewBox="0 0 96.000000 96.000000"
 preserveAspectRatio="xMidYMid meet">
<metadata>
Created by potrace 1.14, written by Peter Selinger 2001-2017
</metadata>
<g transform="translate(0.000000,96.000000) scale(0.100000,-0.100000)"
fill="#000000" stroke="none">
<path d="M121 949 c-46 -18 -84 -53 -102 -93 -17 -37 -19 -71 -19 -376 0 -304
2 -339 19 -375 22 -48 44 -69 94 -90 30 -12 92 -15 369 -15 382 0 393 3 445
81 l28 42 3 336 c2 217 -1 349 -7 372 -15 51 -48 88 -95 110 -37 17 -71 19
-376 18 -185 0 -346 -4 -359 -10z"/>
</g>
</svg>
