<svg width="56" height="56" viewBox="0 0 56 56" fill="none" xmlns="http://www.w3.org/2000/svg">
<path fill-rule="evenodd" clip-rule="evenodd" d="M22.063 4.35329C22.063 4.40483 21.8044 4.44528 21.4713 4.44528C21.0675 4.44528 20.8355 4.48962 20.7411 4.58383C20.6549 4.67083 20.4284 4.72237 20.1362 4.72237C19.8793 4.72237 19.6694 4.76394 19.6694 4.81492C19.6694 4.86591 19.5037 4.90747 19.3009 4.90747C19.0982 4.90747 18.9325 4.94903 18.9325 4.99946C18.9325 5.05045 18.7695 5.09201 18.5701 5.09201C18.3701 5.09201 18.1812 5.13357 18.1503 5.18456C18.1188 5.23499 17.9713 5.27655 17.8222 5.27655C17.6736 5.27655 17.5515 5.31812 17.5515 5.3691C17.5515 5.42008 17.4067 5.46165 17.2294 5.46165C17.0521 5.46165 16.9074 5.50321 16.9074 5.55364C16.9074 5.60463 16.8063 5.64619 16.6825 5.64619C16.5588 5.64619 16.4323 5.68775 16.4008 5.73874C16.3693 5.78917 16.2633 5.83073 16.1649 5.83073C16.0672 5.83073 15.9865 5.87229 15.9865 5.92328C15.9865 5.97426 15.886 6.01583 15.7628 6.01583C15.6401 6.01583 15.4772 6.07789 15.401 6.15437C15.3253 6.23029 15.1982 6.29292 15.1187 6.29292C15.0391 6.29292 14.9739 6.33448 14.9739 6.38491C14.9739 6.43589 14.8911 6.47746 14.7894 6.47746C14.6884 6.47746 14.6055 6.51902 14.6055 6.57001C14.6055 6.62044 14.5022 6.662 14.3751 6.662C14.2486 6.662 14.1453 6.70356 14.1453 6.75455C14.1453 6.80553 14.0625 6.8471 13.9608 6.8471C13.8597 6.8471 13.7769 6.88866 13.7769 6.93909C13.7769 6.99007 13.694 7.03164 13.5929 7.03164C13.4913 7.03164 13.4084 7.0732 13.4084 7.12418C13.4084 7.17462 13.3256 7.21618 13.2245 7.21618C13.1234 7.21618 13.0405 7.25774 13.0405 7.30873C13.0405 7.35971 12.9842 7.40127 12.9157 7.40127C12.8472 7.40127 12.6793 7.50491 12.5428 7.63181C12.4058 7.75927 12.2434 7.86291 12.1815 7.86291C12.1191 7.86291 12.0086 7.94603 11.9357 8.04745C11.8628 8.14942 11.7369 8.23254 11.6562 8.23254C11.5755 8.23254 11.4209 8.31567 11.3121 8.41708C11.2038 8.5185 11.0695 8.60163 11.0143 8.60163C10.9596 8.60163 10.8132 8.69528 10.6895 8.80944C10.1056 9.34866 10.0034 9.43289 9.9338 9.43289C9.89237 9.43289 9.79901 9.51602 9.72609 9.61799C9.65318 9.7194 9.53938 9.80253 9.47364 9.80253C9.31731 9.80253 6.13546 12.9946 6.13546 13.1514C6.13546 13.2174 6.0526 13.3315 5.95096 13.4047C5.84987 13.4778 5.76701 13.5909 5.76701 13.6557C5.76701 13.7211 5.7079 13.7743 5.63498 13.7743C5.56261 13.7743 5.47644 13.8586 5.44385 13.9616C5.41126 14.0653 5.2842 14.2504 5.16157 14.3734C5.03893 14.4964 4.9384 14.6422 4.9384 14.6976C4.9384 14.7525 4.85554 14.8871 4.75445 14.9963C4.6528 15.1055 4.56994 15.2606 4.56994 15.3416C4.56994 15.4219 4.48708 15.5483 4.38599 15.6214C4.2849 15.6946 4.20204 15.8054 4.20204 15.868C4.20204 15.9301 4.09819 16.0936 3.97169 16.2305C3.84519 16.3673 3.74133 16.5358 3.74133 16.6045C3.74133 16.6732 3.6999 16.7298 3.64963 16.7298C3.59881 16.7298 3.55738 16.8129 3.55738 16.9143C3.55738 17.0163 3.51595 17.0994 3.46513 17.0994C3.41486 17.0994 3.37343 17.1825 3.37343 17.2839C3.37343 17.3854 3.332 17.4685 3.28118 17.4685C3.23036 17.4685 3.18893 17.5516 3.18893 17.6536C3.18893 17.755 3.1475 17.8381 3.09723 17.8381C3.04641 17.8381 3.00498 17.9423 3.00498 18.0692C3.00498 18.1961 2.96355 18.2998 2.91273 18.2998C2.86246 18.2998 2.82103 18.3829 2.82103 18.4849C2.82103 18.5863 2.78236 18.6694 2.7354 18.6694C2.62658 18.6694 2.36032 19.1997 2.36032 19.417C2.36032 19.5079 2.31889 19.6076 2.26862 19.6392C2.2178 19.6708 2.17637 19.7772 2.17637 19.8758C2.17637 19.9739 2.13494 20.0548 2.08412 20.0548C2.03385 20.0548 1.99242 20.1795 1.99242 20.3319C1.99242 20.4843 1.95099 20.609 1.90017 20.609C1.84935 20.609 1.80792 20.7542 1.80792 20.9321C1.80792 21.11 1.76648 21.2557 1.71622 21.2557C1.66539 21.2557 1.62396 21.3804 1.62396 21.5328C1.62396 21.6852 1.58253 21.8099 1.53171 21.8099C1.48144 21.8099 1.44001 21.9762 1.44001 22.179C1.44001 22.3824 1.39858 22.5486 1.34776 22.5486C1.29694 22.5486 1.25551 22.7177 1.25551 22.9249C1.25551 23.1361 1.1953 23.3616 1.11741 23.4392C1.03676 23.5201 0.979307 23.7457 0.979307 23.9812C0.979307 24.2034 0.937876 24.4107 0.887607 24.4423C0.836786 24.4733 0.795356 24.7875 0.795356 25.1405C0.795356 25.5063 0.755582 25.7812 0.703104 25.7812C0.577155 25.7812 0.577155 31.9375 0.703104 32.0157C0.753925 32.0473 0.795356 32.3382 0.795356 32.6624C0.795356 32.9866 0.836786 33.2776 0.887607 33.3091C0.937876 33.3402 0.979307 33.5474 0.979307 33.7697C0.979307 34.0052 1.03676 34.2307 1.11741 34.3117C1.1953 34.3898 1.25551 34.6153 1.25551 34.8265C1.25551 35.0332 1.29694 35.2022 1.34776 35.2022C1.39858 35.2022 1.44001 35.3685 1.44001 35.5719C1.44001 35.7752 1.48144 35.9415 1.53171 35.9415C1.58253 35.9415 1.62396 36.0634 1.62396 36.213C1.62396 36.3621 1.66539 36.5101 1.71622 36.5417C1.76648 36.5733 1.80792 36.7212 1.80792 36.8703C1.80792 37.0199 1.84935 37.1418 1.90017 37.1418C1.95099 37.1418 1.99242 37.2665 1.99242 37.4189C1.99242 37.5713 2.03385 37.696 2.08412 37.696C2.13494 37.696 2.17637 37.8002 2.17637 37.9271C2.17637 38.054 2.2178 38.1582 2.26862 38.1582C2.31889 38.1582 2.36032 38.2347 2.36032 38.3283C2.36032 38.55 2.62548 39.0815 2.7354 39.0815C2.78236 39.0815 2.82103 39.1857 2.82103 39.3126C2.82103 39.4395 2.86246 39.5437 2.91273 39.5437C2.96355 39.5437 3.00498 39.6268 3.00498 39.7282C3.00498 39.8296 3.04641 39.9127 3.09723 39.9127C3.1475 39.9127 3.18893 39.9959 3.18893 40.0978C3.18893 40.1992 3.23036 40.2824 3.28118 40.2824C3.332 40.2824 3.37343 40.3655 3.37343 40.4669C3.37343 40.5689 3.41486 40.652 3.46513 40.652C3.51595 40.652 3.55738 40.7351 3.55738 40.8366C3.55738 40.938 3.59108 41.0211 3.63251 41.0211C3.67339 41.0211 3.76398 41.1668 3.83359 41.3447C3.90319 41.5226 4.01422 41.6678 4.08106 41.6678C4.14735 41.6678 4.20204 41.7415 4.20204 41.8324C4.20204 41.9227 4.2849 42.0563 4.38599 42.1295C4.48708 42.2026 4.56994 42.3484 4.56994 42.4531C4.56994 42.5573 4.6528 42.703 4.75445 42.7762C4.85554 42.8493 4.9384 42.974 4.9384 43.0533C4.9384 43.1325 5.02126 43.2572 5.12235 43.3304C5.22399 43.4035 5.30685 43.5143 5.30685 43.5764C5.30685 43.6385 5.49301 43.8784 5.72116 44.1106C5.94875 44.3423 6.13546 44.5756 6.13546 44.6294C6.13546 44.7718 9.32836 47.9483 9.47144 47.9483C9.53828 47.9483 9.65318 48.0315 9.72609 48.1334C9.79901 48.2348 9.9117 48.318 9.97633 48.318C10.041 48.318 10.094 48.3773 10.094 48.4504C10.094 48.523 10.1785 48.6095 10.2813 48.6422C10.384 48.6749 10.5685 48.8023 10.6911 48.9253C10.8143 49.0484 10.9596 49.1492 11.0143 49.1492C11.0695 49.1492 11.2038 49.2324 11.3121 49.3338C11.4209 49.4357 11.575 49.5189 11.6551 49.5189C11.7346 49.5189 11.8777 49.6225 11.9727 49.7494C12.0677 49.8763 12.202 49.9805 12.2705 49.9805C12.3395 49.9805 12.3959 50.0143 12.3959 50.0559C12.3959 50.0969 12.5406 50.1878 12.7179 50.2576C12.8952 50.3274 13.0405 50.4183 13.0405 50.4593C13.0405 50.5009 13.1234 50.5347 13.2245 50.5347C13.3256 50.5347 13.4084 50.5762 13.4084 50.6272C13.4084 50.6777 13.4913 50.7192 13.5929 50.7192C13.694 50.7192 13.7769 50.7608 13.7769 50.8118C13.7769 50.8628 13.8597 50.9043 13.9608 50.9043C14.0625 50.9043 14.1453 50.9459 14.1453 50.9963C14.1453 51.0473 14.2486 51.0889 14.3751 51.0889C14.5022 51.0889 14.6055 51.1304 14.6055 51.1814C14.6055 51.2318 14.6884 51.2734 14.7894 51.2734C14.8911 51.2734 14.9739 51.3122 14.9739 51.3593C14.9739 51.4807 15.5131 51.7356 15.7705 51.7356C15.8893 51.7356 15.9865 51.7772 15.9865 51.8276C15.9865 51.8786 16.0694 51.9201 16.1705 51.9201C16.2721 51.9201 16.355 51.9617 16.355 52.0127C16.355 52.0631 16.4793 52.1047 16.6312 52.1047C16.7831 52.1047 16.9074 52.1462 16.9074 52.1972C16.9074 52.2482 17.0521 52.2898 17.2294 52.2898C17.4067 52.2898 17.5515 52.3313 17.5515 52.3818C17.5515 52.4327 17.6736 52.4743 17.8222 52.4743C17.9713 52.4743 18.1188 52.5159 18.1503 52.5669C18.1812 52.6173 18.3701 52.6589 18.5701 52.6589C18.7695 52.6589 18.9325 52.7004 18.9325 52.7514C18.9325 52.8024 19.0805 52.8439 19.2617 52.8439C19.4424 52.8439 19.6523 52.906 19.7285 52.9825C19.8092 53.0634 20.034 53.121 20.2688 53.121C20.4903 53.121 20.6969 53.1626 20.7278 53.213C20.7593 53.264 21.0725 53.3056 21.4238 53.3056C21.7884 53.3056 22.063 53.3455 22.063 53.3981C22.063 53.458 23.1661 53.4901 25.1879 53.4901C27.1716 53.4901 28.3333 53.4563 28.3698 53.3981C28.4007 53.3471 28.6907 53.3056 29.0139 53.3056C29.337 53.3056 29.6271 53.264 29.6585 53.213C29.69 53.1626 29.9005 53.121 30.127 53.121C30.4082 53.121 30.5556 53.0767 30.5921 52.9825C30.628 52.8883 30.775 52.8439 31.0512 52.8439H31.4572L31.4323 50.5114L31.408 48.1794L31.1661 48.1512C31.0335 48.1356 30.86 48.1877 30.7816 48.267C30.6987 48.3496 30.48 48.4105 30.2634 48.4105C30.0574 48.4105 29.8889 48.4521 29.8889 48.5025C29.8889 48.5535 29.7254 48.5951 29.526 48.5951C29.3265 48.5951 29.1376 48.6366 29.1061 48.6876C29.0746 48.738 28.8029 48.7796 28.5024 48.7796C28.1991 48.7796 27.9555 48.8212 27.9555 48.8721C27.9555 48.9281 27.5583 48.9647 26.9479 48.9647C26.3756 48.9647 25.916 49.0046 25.884 49.0567C25.8088 49.1781 24.5488 49.1781 24.5488 49.0567C24.5488 49.0007 24.1361 48.9647 23.4954 48.9647C22.8927 48.9647 22.4176 48.9248 22.385 48.8721C22.3541 48.8212 22.0823 48.7796 21.7812 48.7796C21.478 48.7796 21.2344 48.7386 21.2344 48.6876C21.2344 48.6366 21.0476 48.5951 20.8201 48.5951C20.5919 48.5951 20.4058 48.5535 20.4058 48.5025C20.4058 48.4521 20.2444 48.4105 20.0472 48.4105C19.8136 48.4105 19.6705 48.3623 19.6357 48.272C19.6053 48.1916 19.4678 48.1334 19.3092 48.1334C19.159 48.1334 19.0098 48.0919 18.9789 48.0409C18.9474 47.9899 18.8209 47.9483 18.6972 47.9483C18.5734 47.9483 18.4723 47.9068 18.4723 47.8563C18.4723 47.8054 18.348 47.7638 18.1961 47.7638C18.0442 47.7638 17.9199 47.7222 17.9199 47.6712C17.9199 47.6208 17.8166 47.5792 17.6896 47.5792C17.5631 47.5792 17.4598 47.5377 17.4598 47.4867C17.4598 47.4357 17.3791 47.3942 17.2808 47.3942C17.1825 47.3942 17.0764 47.3526 17.0455 47.3022C17.014 47.2512 16.8875 47.2096 16.7637 47.2096C16.64 47.2096 16.5389 47.168 16.5389 47.1171C16.5389 47.0666 16.4561 47.0251 16.355 47.0251C16.2533 47.0251 16.1705 46.9835 16.1705 46.9325C16.1705 46.8815 16.0672 46.84 15.9407 46.84C15.8059 46.84 15.7103 46.7873 15.7103 46.7125C15.7103 46.6421 15.6379 46.5607 15.549 46.5319C15.4606 46.5025 15.1811 46.3506 14.9275 46.1938C14.6745 46.037 14.395 45.8846 14.3061 45.8558C14.2177 45.8264 14.1453 45.766 14.1453 45.7211C14.1453 45.6762 14.0929 45.6396 14.0293 45.6396C13.9653 45.6396 13.7476 45.495 13.546 45.3182C13.3438 45.1409 13.1477 44.9957 13.1096 44.9946C13.0715 44.9934 12.8698 44.8266 12.661 44.6233C12.4522 44.4204 12.2335 44.2542 12.1749 44.2542C12.1164 44.2542 12.0086 44.171 11.9357 44.0691C11.8628 43.9677 11.7496 43.8845 11.6849 43.8845C11.6203 43.8845 11.5673 43.8424 11.5673 43.7909C11.5673 43.6684 10.2177 42.3145 10.0957 42.3145C10.0443 42.3145 10.0023 42.2519 10.0023 42.176C10.0023 42.0995 9.96087 42.0375 9.91005 42.0375C9.85922 42.0375 9.81779 41.9748 9.81779 41.8989C9.81779 41.8224 9.77636 41.7604 9.72609 41.7604C9.67527 41.7604 9.63384 41.7144 9.63384 41.659C9.63384 41.603 9.50955 41.4406 9.35764 41.2982C9.20573 41.1558 9.08144 41 9.08144 40.9513C9.08144 40.9031 8.97759 40.7512 8.85108 40.6143C8.72458 40.4774 8.62128 40.3256 8.62128 40.2774C8.62128 40.2292 8.57985 40.1898 8.52903 40.1898C8.47821 40.1898 8.43678 40.1278 8.43678 40.0513C8.43678 39.9754 8.39535 39.9127 8.34508 39.9127C8.29426 39.9127 8.25283 39.8584 8.25283 39.7919C8.25283 39.7254 8.16997 39.5813 8.06888 39.4722C7.96724 39.3635 7.88382 39.2206 7.88272 39.1546C7.88161 39.0892 7.7993 38.9318 7.70042 38.8044C7.60154 38.6775 7.51924 38.5217 7.51813 38.458C7.51703 38.3948 7.47504 38.3427 7.42422 38.3427C7.3734 38.3427 7.33197 38.2596 7.33197 38.1582C7.33197 38.0551 7.27065 37.9731 7.19387 37.9731C7.10825 37.9731 7.05577 37.8861 7.05577 37.7426C7.05577 37.6157 7.01434 37.5115 6.96407 37.5115C6.91325 37.5115 6.87182 37.4078 6.87182 37.2804C6.87182 37.1535 6.83039 37.0498 6.77956 37.0498C6.7293 37.0498 6.68786 36.9457 6.68786 36.8188C6.68786 36.6918 6.64643 36.5877 6.59561 36.5877C6.54479 36.5877 6.50336 36.5073 6.50336 36.4087C6.50336 36.31 6.46193 36.2036 6.41166 36.172C6.36084 36.141 6.31941 36.0163 6.31941 35.8949C6.31941 35.7741 6.27798 35.6494 6.22716 35.6178C6.17689 35.5868 6.13546 35.4621 6.13546 35.3408C6.13546 35.2199 6.09403 35.0953 6.04321 35.0637C5.99239 35.0326 5.95096 34.883 5.95096 34.7323C5.95096 34.5732 5.89295 34.4352 5.81285 34.4048C5.72281 34.3698 5.67475 34.2263 5.67475 33.9919C5.67475 33.794 5.63332 33.6322 5.58305 33.6322C5.53223 33.6322 5.4908 33.4455 5.4908 33.2166C5.4908 32.9877 5.44937 32.801 5.39855 32.801C5.34773 32.801 5.30685 32.5549 5.30685 32.2468C5.30685 31.9387 5.26597 31.6926 5.2146 31.6926C5.15825 31.6926 5.12235 31.2637 5.12235 30.5898C5.12235 29.9541 5.08368 29.4626 5.03065 29.4299C4.91078 29.3551 4.91078 28.3958 5.03065 28.3215C5.08313 28.2888 5.12235 27.8145 5.12235 27.2132C5.12235 26.6119 5.16212 26.1375 5.2146 26.1048C5.26542 26.0732 5.30685 25.8006 5.30685 25.4985C5.30685 25.1943 5.34773 24.9499 5.39855 24.9499C5.44937 24.9499 5.4908 24.7631 5.4908 24.5343C5.4908 24.3059 5.53223 24.1186 5.58305 24.1186C5.63332 24.1186 5.67475 23.9568 5.67475 23.759C5.67475 23.5251 5.72281 23.381 5.81285 23.3467C5.89295 23.3156 5.95096 23.1776 5.95096 23.0186C5.95096 22.8679 5.99239 22.7188 6.04321 22.6872C6.09403 22.6556 6.13546 22.5287 6.13546 22.4046C6.13546 22.2804 6.17689 22.179 6.22716 22.179C6.27798 22.179 6.31941 22.0543 6.31941 21.9019C6.31941 21.7495 6.36084 21.6248 6.41166 21.6248C6.46193 21.6248 6.50336 21.5212 6.50336 21.3943C6.50336 21.2674 6.54479 21.1632 6.59561 21.1632C6.64643 21.1632 6.68786 21.0823 6.68786 20.9842C6.68786 20.8856 6.7293 20.7792 6.77956 20.7476C6.83039 20.716 6.87182 20.5891 6.87182 20.4649C6.87182 20.3408 6.91325 20.2394 6.96407 20.2394C7.01434 20.2394 7.05577 20.1358 7.05577 20.0088C7.05577 19.8648 7.10825 19.7778 7.19387 19.7778C7.27065 19.7778 7.33197 19.6957 7.33197 19.5932C7.33197 19.4912 7.36898 19.4081 7.41373 19.4081C7.45847 19.4081 7.51758 19.3355 7.54575 19.2468C7.60044 19.0739 7.89542 18.5613 7.98381 18.4849C8.01364 18.4594 8.09595 18.3036 8.16776 18.1385C8.23902 17.9733 8.32906 17.8381 8.36718 17.8381C8.40585 17.8381 8.43678 17.7755 8.43678 17.6996C8.43678 17.6237 8.47821 17.561 8.52903 17.561C8.57985 17.561 8.62128 17.5217 8.62128 17.4735C8.62128 17.4253 8.72458 17.274 8.85108 17.1365C8.97814 16.9997 9.08144 16.8522 9.08144 16.809C9.08144 16.7652 9.24716 16.5585 9.44989 16.349C9.65207 16.1401 9.81779 15.9323 9.81779 15.8885C9.81779 15.7832 12.097 13.4972 12.2014 13.4972C12.2456 13.4972 12.4522 13.331 12.661 13.1276C12.8698 12.9242 13.0759 12.758 13.119 12.758C13.1621 12.758 13.3095 12.6543 13.446 12.5274C13.5824 12.4005 13.7338 12.2963 13.7819 12.2963C13.8299 12.2963 13.8691 12.2548 13.8691 12.2038C13.8691 12.1534 13.931 12.1118 14.0072 12.1118C14.0829 12.1118 14.1453 12.0802 14.1453 12.042C14.1453 12.0032 14.2796 11.9134 14.4442 11.8414C14.6088 11.7693 14.764 11.6856 14.7894 11.6552C14.8149 11.6241 15.0325 11.4961 15.2728 11.3709C15.5136 11.2451 15.7103 11.1109 15.7103 11.0727C15.7103 11.0345 15.7943 11.0034 15.8976 11.0034C16.0003 11.0034 16.108 10.9408 16.1373 10.8649C16.1666 10.7884 16.2688 10.7263 16.3644 10.7263C16.4605 10.7263 16.5389 10.6848 16.5389 10.6338C16.5389 10.5828 16.64 10.5413 16.7637 10.5413C16.8875 10.5413 17.014 10.4997 17.0455 10.4493C17.0764 10.3983 17.1825 10.3567 17.2808 10.3567C17.3791 10.3567 17.4598 10.3151 17.4598 10.2642C17.4598 10.2137 17.5631 10.1722 17.6896 10.1722C17.8166 10.1722 17.9199 10.1306 17.9199 10.0796C17.9199 10.0286 18.0442 9.98707 18.1961 9.98707C18.348 9.98707 18.4723 9.94551 18.4723 9.89508C18.4723 9.8441 18.5966 9.80253 18.7485 9.80253C18.9004 9.80253 19.0247 9.76097 19.0247 9.70998C19.0247 9.65955 19.1468 9.61799 19.2954 9.61799C19.4446 9.61799 19.5921 9.57643 19.623 9.52544C19.6545 9.47446 19.7992 9.43289 19.9445 9.43289C20.0898 9.43289 20.2704 9.37083 20.3466 9.29435C20.424 9.21676 20.6488 9.1558 20.8593 9.1558C21.0659 9.1558 21.2344 9.11424 21.2344 9.06381C21.2344 9.01227 21.478 8.97126 21.7812 8.97126C22.0823 8.97126 22.3541 8.9297 22.385 8.87872C22.4176 8.82607 22.8927 8.78672 23.4954 8.78672C24.1361 8.78672 24.5488 8.75015 24.5488 8.69417C24.5488 8.64153 24.825 8.60163 25.1934 8.60163C25.5614 8.60163 25.8376 8.64153 25.8376 8.69417C25.8376 8.75015 26.2519 8.78672 26.8965 8.78672C27.5412 8.78672 27.9555 8.82274 27.9555 8.87872C27.9555 8.93025 28.1991 8.97126 28.5024 8.97126C28.8029 8.97126 29.0746 9.01283 29.1061 9.06381C29.1376 9.11424 29.3083 9.1558 29.4862 9.1558C29.6641 9.1558 29.8718 9.21843 29.948 9.29435C30.0237 9.37083 30.2259 9.43289 30.396 9.43289C30.5667 9.43289 30.7319 9.47446 30.7634 9.52544C30.7948 9.57643 30.9628 9.61799 31.1373 9.61799H31.4539V7.26273V4.90747H31.0396C30.8114 4.90747 30.6253 4.86591 30.6253 4.81492C30.6253 4.76394 30.4358 4.72237 30.2043 4.72237C29.953 4.72237 29.7276 4.66696 29.6453 4.58383C29.5541 4.49239 29.3243 4.44528 28.9669 4.44528C28.6697 4.44528 28.4007 4.40372 28.3698 4.35329C28.3333 4.29455 27.1716 4.26074 25.1879 4.26074C23.1661 4.26074 22.063 4.29344 22.063 4.35329ZM36.1493 11.0494C36.1493 14.7835 36.1256 17.8381 36.0968 17.8381C36.0675 17.8381 35.9908 17.786 35.9256 17.7229C35.5649 17.3721 35.2185 17.0994 35.134 17.0994C35.0804 17.0994 34.8804 16.9431 34.6882 16.753C34.233 16.3014 33.959 16.083 33.8463 16.083C33.7966 16.083 33.7557 16.0415 33.7557 15.991C33.7557 15.9401 33.6917 15.8985 33.6138 15.8985C33.5353 15.8985 33.3829 15.8154 33.274 15.714C33.1652 15.612 33.0221 15.5289 32.9559 15.5289C32.889 15.5289 32.8349 15.4873 32.8349 15.4369C32.8349 15.3859 32.7509 15.3443 32.6476 15.3443C32.5449 15.3443 32.4371 15.2817 32.4079 15.2058C32.3786 15.1299 32.2764 15.0672 32.1808 15.0672C32.0847 15.0672 32.0063 15.0257 32.0063 14.9747C32.0063 14.9243 31.9234 14.8827 31.8223 14.8827C31.7207 14.8827 31.6378 14.8411 31.6378 14.7901C31.6378 14.7392 31.5367 14.6976 31.4135 14.6976C31.2898 14.6976 31.1627 14.656 31.1318 14.6056C31.1003 14.5546 30.9738 14.5131 30.8501 14.5131C30.7263 14.5131 30.6253 14.4715 30.6253 14.4205C30.6253 14.3701 30.501 14.3285 30.349 14.3285C30.1971 14.3285 30.0728 14.2869 30.0728 14.236C30.0728 14.185 29.9276 14.1434 29.7508 14.1434C29.5735 14.1434 29.4282 14.1019 29.4282 14.0514C29.4282 14.0004 29.2625 13.9589 29.0603 13.9589C28.8576 13.9589 28.6918 13.9173 28.6918 13.8663C28.6918 13.8159 28.4819 13.7743 28.225 13.7743C27.9328 13.7743 27.7063 13.7222 27.6202 13.6358C27.4174 13.4324 23.0153 13.4296 22.748 13.6325C22.6496 13.7073 22.3723 13.7693 22.132 13.771C21.8917 13.7727 21.6945 13.8159 21.6945 13.8663C21.6945 13.9173 21.5084 13.9589 21.2802 13.9589C21.0526 13.9589 20.8659 14.0004 20.8659 14.0514C20.8659 14.1019 20.7444 14.1434 20.5952 14.1434C20.4466 14.1434 20.2991 14.185 20.2676 14.236C20.2362 14.2869 20.0887 14.3285 19.9401 14.3285C19.7909 14.3285 19.6694 14.3701 19.6694 14.4205C19.6694 14.4715 19.5887 14.5131 19.4904 14.5131C19.3921 14.5131 19.286 14.5546 19.2551 14.6056C19.2236 14.656 19.0971 14.6976 18.9734 14.6976C18.8496 14.6976 18.7485 14.7392 18.7485 14.7901C18.7485 14.8411 18.6927 14.8827 18.6248 14.8827C18.4397 14.8827 17.9199 15.1603 17.9199 15.259C17.9199 15.3055 17.8371 15.3443 17.736 15.3443C17.6343 15.3443 17.5515 15.3859 17.5515 15.4369C17.5515 15.4873 17.4896 15.5289 17.4134 15.5289C17.3377 15.5289 17.2753 15.5704 17.2753 15.6214C17.2753 15.6724 17.1924 15.714 17.0913 15.714C16.9902 15.714 16.9074 15.7555 16.9074 15.806C16.9074 15.8569 16.851 15.8985 16.7825 15.8985C16.714 15.8985 16.5284 16.0232 16.3693 16.1756C16.2102 16.328 16.0489 16.4527 16.0103 16.4532C15.9721 16.4532 15.7352 16.6405 15.4838 16.8689C15.233 17.0972 14.9933 17.2839 14.9513 17.2839C14.8491 17.2839 13.5929 18.5486 13.5929 18.6517C13.5929 18.696 13.4062 18.9304 13.1786 19.1726C12.9505 19.4142 12.7643 19.6497 12.7643 19.6957C12.7643 19.7417 12.64 19.9096 12.4881 20.0693C12.3362 20.2289 12.2119 20.4156 12.2119 20.4843C12.2119 20.5531 12.1705 20.609 12.1197 20.609C12.0688 20.609 12.0274 20.6921 12.0274 20.7936C12.0274 20.8955 11.986 20.9787 11.9357 20.9787C11.8849 20.9787 11.8435 21.0407 11.8435 21.1172C11.8435 21.1931 11.802 21.2557 11.7512 21.2557C11.7009 21.2557 11.6595 21.3389 11.6595 21.4403C11.6595 21.5417 11.628 21.6254 11.5905 21.6254C11.4977 21.6265 11.1988 22.1602 11.1988 22.3253C11.1988 22.3974 11.1574 22.4561 11.1071 22.4561C11.0563 22.4561 11.0149 22.5575 11.0149 22.6817C11.0149 22.8058 10.9734 22.9327 10.9226 22.9643C10.8723 22.9959 10.8309 23.1023 10.8309 23.2009C10.8309 23.299 10.7895 23.3799 10.7387 23.3799C10.6878 23.3799 10.6464 23.5046 10.6464 23.657C10.6464 23.8094 10.605 23.9341 10.5547 23.9341C10.5039 23.9341 10.4625 24.0793 10.4625 24.2572C10.4625 24.4351 10.421 24.5808 10.3702 24.5808C10.3199 24.5808 10.2785 24.7443 10.2785 24.9444C10.2785 25.145 10.2371 25.3345 10.1862 25.3655C10.1354 25.3971 10.094 25.631 10.094 25.8859C10.094 26.1741 10.0421 26.4007 9.9559 26.4872C9.75371 26.6906 9.75095 31.0143 9.95313 31.2825C10.0277 31.3812 10.0896 31.6566 10.0912 31.8949C10.0929 32.1332 10.1354 32.3537 10.1862 32.3853C10.2371 32.4169 10.2785 32.6064 10.2785 32.8065C10.2785 33.0066 10.3199 33.1706 10.3702 33.1706C10.421 33.1706 10.4625 33.3158 10.4625 33.4937C10.4625 33.6716 10.5039 33.8168 10.5547 33.8168C10.605 33.8168 10.6464 33.9415 10.6464 34.0939C10.6464 34.2463 10.6878 34.3709 10.7387 34.3709C10.7895 34.3709 10.8309 34.4519 10.8309 34.5505C10.8309 34.6491 10.8723 34.7555 10.9226 34.7866C10.9734 34.8182 11.0149 34.9163 11.0149 35.0049C11.0149 35.2188 11.4684 36.126 11.5755 36.126C11.6214 36.126 11.6595 36.2092 11.6595 36.3106C11.6595 36.4125 11.7009 36.4957 11.7512 36.4957C11.802 36.4957 11.8435 36.5577 11.8435 36.6342C11.8435 36.7101 11.8849 36.7728 11.9357 36.7728C11.986 36.7728 12.0274 36.8559 12.0274 36.9573C12.0274 37.0587 12.0688 37.1418 12.1197 37.1418C12.1705 37.1418 12.2119 37.1967 12.2119 37.2632C12.2119 37.3297 12.2948 37.4732 12.3959 37.5824C12.497 37.6916 12.5798 37.8052 12.5798 37.8346C12.5798 37.8983 12.6759 38.0152 13.2013 38.5905C13.4167 38.826 13.5929 39.0571 13.5929 39.1047C13.5929 39.2228 14.8497 40.4669 14.9695 40.4669C15.0226 40.4669 15.0656 40.5085 15.0656 40.5595C15.0656 40.6104 15.1098 40.652 15.164 40.652C15.2181 40.652 15.3993 40.7972 15.5661 40.9751C15.7335 41.153 15.9175 41.2982 15.9755 41.2982C16.0329 41.2982 16.2102 41.4229 16.3693 41.5753C16.5284 41.7277 16.714 41.8524 16.7825 41.8524C16.851 41.8524 16.9074 41.8939 16.9074 41.9449C16.9074 41.9959 16.9902 42.0375 17.0913 42.0375C17.1924 42.0375 17.2753 42.079 17.2753 42.1295C17.2753 42.1804 17.3344 42.222 17.4056 42.222C17.4774 42.222 17.5504 42.2575 17.5669 42.3001C17.6106 42.4115 18.4519 42.8687 18.6137 42.8687C18.6878 42.8687 18.7485 42.9103 18.7485 42.9607C18.7485 43.0117 18.8496 43.0533 18.9734 43.0533C19.0971 43.0533 19.2236 43.0948 19.2551 43.1458C19.286 43.1962 19.3921 43.2378 19.4904 43.2378C19.5887 43.2378 19.6694 43.2794 19.6694 43.3304C19.6694 43.3813 19.7909 43.4229 19.9401 43.4229C20.0887 43.4229 20.2362 43.4645 20.2676 43.5149C20.2991 43.5659 20.4466 43.6074 20.5952 43.6074C20.7444 43.6074 20.8659 43.649 20.8659 43.7C20.8659 43.7504 21.0349 43.792 21.241 43.792C21.4515 43.792 21.6763 43.8529 21.7536 43.9305C21.8332 44.0103 22.058 44.0691 22.2812 44.0691C22.4955 44.0691 22.7137 44.1123 22.7656 44.165C23.0076 44.4071 28.5858 44.1583 28.6708 43.9006C28.6907 43.8413 28.8697 43.792 29.068 43.792C29.2663 43.792 29.4282 43.7504 29.4282 43.7C29.4282 43.649 29.5735 43.6074 29.7508 43.6074C29.9276 43.6074 30.0728 43.5659 30.0728 43.5149C30.0728 43.4645 30.1971 43.4229 30.349 43.4229C30.501 43.4229 30.6253 43.3813 30.6253 43.3304C30.6253 43.2794 30.7291 43.2378 30.8556 43.2378C30.9821 43.2378 31.0854 43.1962 31.0854 43.1458C31.0854 43.0948 31.2097 43.0533 31.3616 43.0533C31.5135 43.0533 31.6378 43.0117 31.6378 42.9607C31.6378 42.9103 31.7207 42.8687 31.8223 42.8687C31.9234 42.8687 32.0063 42.8272 32.0063 42.7762C32.0063 42.7252 32.0891 42.6836 32.1902 42.6836C32.2919 42.6836 32.3747 42.6421 32.3747 42.5916C32.3747 42.5407 32.4349 42.4991 32.5084 42.4991C32.5819 42.4991 32.7459 42.3955 32.8724 42.268C32.9989 42.1411 33.1669 42.0375 33.2448 42.0375C33.3232 42.0375 33.3873 41.9959 33.3873 41.9449C33.3873 41.8939 33.4701 41.8524 33.5712 41.8524C33.6729 41.8524 33.7557 41.8108 33.7557 41.7604C33.7557 41.7094 33.8027 41.6678 33.8596 41.6678C33.917 41.6678 34.0314 41.5947 34.1131 41.5054C34.1949 41.4162 34.3761 41.2843 34.5153 41.2128C34.6545 41.1414 34.7683 41.0449 34.7683 40.9989C34.7683 40.8837 34.95 40.7235 35.266 40.5595C35.5698 40.4015 36.2465 39.7487 36.6559 39.2184C36.8078 39.0216 37.0564 38.7329 37.2083 38.5777C37.3602 38.4226 37.5463 38.171 37.622 38.0186C37.6971 37.8667 37.8319 37.675 37.9209 37.5929C38.0098 37.5109 38.0827 37.3801 38.0827 37.3026C38.0827 37.225 38.1446 37.138 38.2208 37.1086C38.2965 37.0792 38.3589 36.9917 38.3589 36.9141C38.3589 36.8365 38.4004 36.7728 38.4512 36.7728C38.5014 36.7728 38.5429 36.7101 38.5429 36.6342C38.5429 36.5577 38.5843 36.4957 38.6351 36.4957C38.686 36.4957 38.7274 36.4125 38.7274 36.3106C38.7274 36.2092 38.7688 36.126 38.8191 36.126C38.8699 36.126 38.9113 36.0429 38.9113 35.9415C38.9113 35.8395 38.9528 35.7564 39.0036 35.7564C39.0539 35.7564 39.0953 35.6733 39.0953 35.5719C39.0953 35.4704 39.1367 35.3873 39.1875 35.3873C39.2384 35.3873 39.2798 35.2859 39.2798 35.1618C39.2798 35.0376 39.3212 34.9107 39.3715 34.8791C39.4223 34.8475 39.4637 34.7251 39.4637 34.6065C39.4637 34.4879 39.5256 34.3671 39.6018 34.3377C39.6775 34.3083 39.7399 34.182 39.7399 34.0562C39.7399 33.9304 39.7814 33.8024 39.8322 33.7708C39.8825 33.7392 39.9239 33.5912 39.9239 33.4421C39.9239 33.2925 39.9653 33.1706 40.0161 33.1706C40.067 33.1706 40.1084 33.0066 40.1084 32.8065C40.1084 32.6064 40.1498 32.4169 40.2001 32.3853C40.2509 32.3537 40.2923 32.1254 40.2923 31.8771C40.2923 31.6294 40.3338 31.4005 40.3846 31.3695C40.4454 31.3318 40.4763 26.7039 40.4763 17.7866V4.26074H38.3131H36.1493V11.0494ZM45.4479 16.9531C45.4479 26.9477 45.4242 29.6532 45.3341 29.6831C45.259 29.7086 45.1977 30.0633 45.153 30.73C45.0563 32.1598 44.9834 32.7417 44.8873 32.8425C44.8414 32.8907 44.8038 33.0858 44.8038 33.2759C44.8038 33.466 44.7624 33.6472 44.7116 33.6782C44.6608 33.7098 44.6193 33.8761 44.6193 34.0479C44.6193 34.2197 44.5779 34.3859 44.5276 34.4175C44.4768 34.4485 44.4354 34.5965 44.4354 34.7461C44.4354 34.8952 44.394 35.0177 44.3431 35.0177C44.2929 35.0177 44.2514 35.1424 44.2514 35.2948C44.2514 35.4472 44.21 35.5719 44.1592 35.5719C44.1084 35.5719 44.0669 35.6921 44.0669 35.839C44.0669 35.9914 44.0078 36.1294 43.9288 36.1593C43.8532 36.1887 43.7907 36.2945 43.7907 36.3948C43.7907 36.4951 43.7493 36.6026 43.699 36.6342C43.6482 36.6652 43.6068 36.7927 43.6068 36.9168C43.6068 37.0404 43.5653 37.1418 43.5145 37.1418C43.4643 37.1418 43.4228 37.2228 43.4228 37.3214C43.4228 37.42 43.3814 37.5264 43.3306 37.5575C43.2798 37.5891 43.2383 37.6955 43.2383 37.7941C43.2383 37.8928 43.1969 37.9731 43.1466 37.9731C43.0958 37.9731 43.0544 38.0562 43.0544 38.1582C43.0544 38.2596 43.0129 38.3427 42.9621 38.3427C42.9119 38.3427 42.8693 38.3948 42.8682 38.458C42.8671 38.5217 42.7854 38.6775 42.6859 38.8044C42.587 38.9318 42.5053 39.1081 42.5042 39.1973C42.5031 39.286 42.4395 39.3586 42.3639 39.3586C42.2876 39.3586 42.2258 39.4328 42.2258 39.5231C42.2258 39.6135 42.1429 39.7476 42.0418 39.8207C41.9402 39.8939 41.8573 40.0064 41.8573 40.0707C41.8573 40.1793 41.701 40.4048 41.4204 40.7019C41.3568 40.7684 41.3049 40.8681 41.3049 40.9225C41.3049 40.9768 41.1497 41.179 40.9597 41.3713C40.5757 41.7604 40.2923 42.1051 40.2923 42.1827C40.2923 42.2287 39.8968 42.621 39.1246 43.3414C38.982 43.475 38.7412 43.726 38.5893 43.9006C38.4374 44.0746 38.1573 44.3074 37.9673 44.4171C37.6286 44.6138 37.4823 44.7335 36.8415 45.3393C36.6664 45.5044 36.4393 45.6396 36.3366 45.6396C36.1526 45.6396 36.1493 45.6867 36.1493 48.272V50.9043H36.4255C36.5774 50.9043 36.7017 50.8628 36.7017 50.8118C36.7017 50.7608 36.7636 50.7192 36.8398 50.7192C36.9155 50.7192 36.9779 50.6777 36.9779 50.6272C36.9779 50.5762 37.0608 50.5347 37.1619 50.5347C37.2635 50.5347 37.3464 50.4931 37.3464 50.4421C37.3464 50.3917 37.4198 50.3501 37.5099 50.3501C37.5999 50.3501 37.7336 50.267 37.8065 50.165C37.8794 50.0636 38.0142 49.9805 38.1059 49.9805C38.1976 49.9805 38.2965 49.9184 38.3258 49.842C38.3545 49.7655 38.4285 49.7034 38.4893 49.7034C38.5506 49.7034 38.681 49.6308 38.7788 49.5416C38.8771 49.4529 39.0715 49.321 39.2107 49.249C39.3499 49.1769 39.4637 49.0833 39.4637 49.0412C39.4637 48.9991 39.5057 48.9647 39.5571 48.9647C39.6908 48.9647 40.2896 48.5635 40.2912 48.4731C40.2929 48.3523 40.5437 48.1334 40.6796 48.1334C40.7481 48.1334 40.8641 48.0503 40.937 47.9483C41.0099 47.8469 41.1 47.7638 41.1375 47.7638C41.2944 47.7638 43.6068 45.5144 43.6068 45.362C43.6068 45.2528 44.02 44.8084 44.1211 44.8084C44.2222 44.8084 44.6193 44.3107 44.6193 44.1849C44.6193 44.1212 44.6608 44.0691 44.7116 44.0691C44.7624 44.0691 44.8038 44.0159 44.8038 43.951C44.8038 43.8862 44.8867 43.7731 44.9878 43.7C45.0889 43.6268 45.1717 43.5077 45.1717 43.4362C45.1717 43.3642 45.2684 43.2179 45.3872 43.1103C45.6695 42.8532 46.0004 42.365 46.0004 42.2048C46.0004 42.135 46.0832 42.0181 46.1849 41.9449C46.2859 41.8718 46.3688 41.7376 46.3688 41.6473C46.3688 41.557 46.4102 41.4833 46.4611 41.4833C46.5113 41.4833 46.5528 41.4002 46.5528 41.2982C46.5528 41.1968 46.5942 41.1136 46.645 41.1136C46.6958 41.1136 46.7373 41.051 46.7373 40.9751C46.7373 40.8986 46.7787 40.8366 46.829 40.8366C46.8798 40.8366 46.9212 40.7534 46.9212 40.652C46.9212 40.55 46.9521 40.4669 46.9903 40.4664C47.0831 40.4658 47.3814 39.9316 47.3814 39.767C47.3814 39.6949 47.4228 39.6356 47.4736 39.6356C47.5244 39.6356 47.5659 39.5553 47.5659 39.4566C47.5659 39.358 47.6073 39.2516 47.6576 39.22C47.7084 39.189 47.7498 39.0615 47.7498 38.9374C47.7498 38.8138 47.7913 38.7124 47.8421 38.7124C47.8923 38.7124 47.9338 38.6293 47.9338 38.5273C47.9338 38.4259 47.9752 38.3427 48.026 38.3427C48.0768 38.3427 48.1183 38.197 48.1183 38.0197C48.1183 37.8418 48.1597 37.696 48.21 37.696C48.2608 37.696 48.3022 37.6184 48.3022 37.5226C48.3022 37.4272 48.3641 37.2976 48.4403 37.2344C48.5166 37.1712 48.5784 37.0232 48.5784 36.9052C48.5784 36.7877 48.6199 36.6652 48.6707 36.6342C48.7209 36.6026 48.7624 36.4342 48.7624 36.259C48.7624 36.0845 48.8038 35.9415 48.8546 35.9415C48.9055 35.9415 48.9469 35.819 48.9469 35.6699C48.9469 35.5203 48.9883 35.3723 49.0386 35.3408C49.0894 35.3097 49.1308 35.1019 49.1308 34.8791C49.1308 34.6563 49.1723 34.4485 49.2231 34.4175C49.2734 34.3859 49.3148 34.1781 49.3148 33.9553C49.3148 33.7331 49.3562 33.5253 49.407 33.4937C49.4579 33.4621 49.4993 33.1711 49.4993 32.847C49.4993 32.5228 49.5407 32.2318 49.591 32.2008C49.6457 32.167 49.6832 31.6012 49.6832 30.8153C49.6832 30.029 49.7208 29.4637 49.7755 29.4299C49.8258 29.3983 49.8672 29.1883 49.8672 28.9622C49.8672 28.7366 49.8258 28.5521 49.7755 28.5521C49.7147 28.5521 49.6832 26.2738 49.6832 21.9019V15.2518H52.5375H55.3912V13.1276V11.0034H52.5375H49.6832V7.63181V4.26074H47.5659H45.4479V16.9531ZM26.39 17.9307C26.39 17.9817 26.6336 18.0227 26.9368 18.0227C27.2379 18.0227 27.5097 18.0642 27.5412 18.1152C27.5721 18.1662 27.7566 18.2078 27.9511 18.2078C28.1798 18.2078 28.3223 18.2565 28.3571 18.3463C28.3858 18.4222 28.5123 18.4849 28.6377 18.4849C28.7625 18.4849 28.8907 18.5264 28.9222 18.5768C28.9531 18.6278 29.0592 18.6694 29.1575 18.6694C29.2558 18.6694 29.3365 18.711 29.3365 18.7619C29.3365 18.8124 29.4166 18.8539 29.5149 18.8539C29.6132 18.8539 29.7193 18.8955 29.7508 18.9465C29.7817 18.9975 29.8878 19.039 29.9861 19.039C30.0844 19.039 30.1651 19.0806 30.1651 19.131C30.1651 19.182 30.248 19.2236 30.349 19.2236C30.4501 19.2236 30.533 19.2651 30.533 19.3161C30.533 19.3666 30.6159 19.4081 30.7175 19.4081C30.8186 19.4081 30.9015 19.443 30.9015 19.4851C30.9015 19.5273 31.013 19.6209 31.1489 19.693C31.2848 19.765 31.4881 19.9069 31.6002 20.0088C31.914 20.2926 32.0858 20.4245 32.1416 20.4245C32.2283 20.4245 33.8474 22.1042 33.8474 22.1945C33.8474 22.2416 33.948 22.3807 34.0706 22.5038C34.1932 22.6268 34.3231 22.8224 34.3595 22.9382C34.3954 23.0541 34.4518 23.1699 34.4849 23.1954C34.5181 23.2203 34.6678 23.4802 34.818 23.7723C34.9677 24.0643 35.1218 24.3032 35.1594 24.3032C35.1975 24.3032 35.2284 24.3841 35.2284 24.4827C35.2284 24.5814 35.2699 24.6878 35.3207 24.7194C35.3715 24.7504 35.413 24.8568 35.413 24.9554C35.413 25.0541 35.4544 25.135 35.5046 25.135C35.5555 25.135 35.5969 25.2597 35.5969 25.4121C35.5969 25.5645 35.6383 25.6892 35.6892 25.6892C35.7394 25.6892 35.7809 25.8759 35.7809 26.1048C35.7809 26.3331 35.8223 26.5204 35.8731 26.5204C35.9239 26.5204 35.9654 26.7466 35.9654 27.0225C35.9654 27.2991 36.0068 27.5512 36.0571 27.5823C36.1112 27.6161 36.1493 28.1514 36.1493 28.8757C36.1493 29.6 36.1112 30.1354 36.0571 30.1686C36.0068 30.2002 35.9654 30.4518 35.9654 30.7283C35.9654 31.0049 35.9239 31.231 35.8731 31.231C35.8223 31.231 35.7809 31.4177 35.7809 31.6466C35.7809 31.8749 35.7394 32.0622 35.6892 32.0622C35.6383 32.0622 35.5969 32.1869 35.5969 32.3393C35.5969 32.4917 35.5555 32.6164 35.5046 32.6164C35.4544 32.6164 35.413 32.72 35.413 32.847C35.413 32.9744 35.3715 33.078 35.3207 33.078C35.2699 33.078 35.2284 33.1473 35.2284 33.2327C35.2284 33.3175 35.1721 33.4521 35.1031 33.5325C35.034 33.6128 34.7992 34.0107 34.5816 34.4175C34.3634 34.8237 34.1093 35.2233 34.0165 35.3058C33.9237 35.3879 33.8474 35.4987 33.8474 35.5525C33.8474 35.6517 32.2377 37.3269 32.1427 37.3269C32.0842 37.3269 31.9195 37.4577 31.592 37.7653C31.4699 37.88 31.3268 37.9731 31.2738 37.9731C31.2207 37.9731 31.1777 38.0147 31.1777 38.0657C31.1777 38.1166 31.1152 38.1582 31.0396 38.1582C30.9633 38.1582 30.9015 38.1998 30.9015 38.2502C30.9015 38.3012 30.8186 38.3427 30.7175 38.3427C30.6159 38.3427 30.533 38.3843 30.533 38.4353C30.533 38.4857 30.4501 38.5273 30.349 38.5273C30.248 38.5273 30.1651 38.5689 30.1651 38.6198C30.1651 38.6708 30.1215 38.7124 30.0684 38.7124C30.0154 38.7124 29.8005 38.7955 29.5906 38.8969C29.3812 38.9983 29.1542 39.0815 29.0857 39.0815C29.0178 39.0815 28.9382 39.1441 28.9095 39.22C28.8791 39.2993 28.7416 39.3586 28.5902 39.3586C28.4433 39.3586 28.3234 39.4001 28.3234 39.4511C28.3234 39.5021 28.1604 39.5437 27.961 39.5437C27.761 39.5437 27.5721 39.5852 27.5412 39.6356C27.5097 39.6866 27.2379 39.7282 26.9368 39.7282C26.6336 39.7282 26.39 39.7692 26.39 39.8207C26.39 39.8773 25.9315 39.9127 25.199 39.9127C24.5035 39.9127 23.9837 39.8745 23.9505 39.8207C23.919 39.7698 23.6473 39.7282 23.3462 39.7282C23.0429 39.7282 22.7993 39.6872 22.7993 39.6356C22.7993 39.5852 22.6336 39.5437 22.4314 39.5437C22.2287 39.5437 22.063 39.5021 22.063 39.4511C22.063 39.4001 21.9177 39.3586 21.7409 39.3586C21.5155 39.3586 21.4183 39.317 21.4183 39.22C21.4183 39.1441 21.3559 39.0815 21.2791 39.0815C21.2023 39.0815 21.0681 39.0449 20.9797 38.9994C20.8919 38.954 20.6129 38.8193 20.3599 38.6991C20.1063 38.5794 19.8854 38.4503 19.8688 38.412C19.8517 38.3738 19.7583 38.3427 19.6617 38.3427C19.5644 38.3427 19.4849 38.3112 19.4849 38.2729C19.4849 38.2347 19.3512 38.1438 19.1877 38.0712C19.0236 37.998 18.7983 37.8529 18.6861 37.7481C18.574 37.6434 18.2911 37.3912 18.0575 37.1884C17.2885 36.5184 17.0913 36.33 17.0913 36.2646C17.0913 36.2291 16.967 36.0839 16.8151 35.9415C16.6632 35.7991 16.5389 35.6472 16.5389 35.604C16.5389 35.5364 16.4014 35.3507 15.9882 34.8597C15.9368 34.7988 15.8943 34.7051 15.8943 34.6519C15.8943 34.5993 15.8528 34.556 15.8026 34.556C15.7517 34.556 15.7103 34.4762 15.7103 34.3787C15.7103 34.2817 15.6794 34.1881 15.6413 34.1709C15.5418 34.1266 15.1579 33.3618 15.1579 33.2077C15.1579 33.1362 15.1165 33.078 15.0656 33.078C15.0154 33.078 14.9739 32.9744 14.9739 32.847C14.9739 32.72 14.9325 32.6164 14.8817 32.6164C14.8309 32.6164 14.7894 32.4917 14.7894 32.3393C14.7894 32.1542 14.7436 32.0622 14.6513 32.0622C14.5491 32.0622 14.5132 31.9542 14.5132 31.6466C14.5132 31.4177 14.4718 31.231 14.4215 31.231C14.3702 31.231 14.3293 30.9844 14.3293 30.6768C14.3293 30.3687 14.2884 30.1226 14.237 30.1226C14.1807 30.1226 14.1453 29.6626 14.1453 28.9272C14.1453 28.2301 14.1835 27.7081 14.237 27.6748C14.2879 27.6432 14.3293 27.3706 14.3293 27.0691C14.3293 26.7648 14.3702 26.5204 14.4215 26.5204C14.4718 26.5204 14.5132 26.3525 14.5132 26.148C14.5132 25.902 14.5602 25.7573 14.6513 25.7224C14.7303 25.692 14.7894 25.5545 14.7894 25.4021C14.7894 25.2553 14.8309 25.135 14.8817 25.135C14.9325 25.135 14.9739 25.0718 14.9739 24.9948C14.9739 24.9183 15.0104 24.7831 15.0557 24.695C15.101 24.6069 15.2352 24.3265 15.3551 24.0726C15.4744 23.8188 15.6031 23.5972 15.6413 23.58C15.6794 23.5633 15.7103 23.4697 15.7103 23.3722C15.7103 23.2746 15.7517 23.1954 15.8026 23.1954C15.8528 23.1954 15.8943 23.1521 15.8943 23.0989C15.8943 23.0457 15.9368 22.9526 15.9882 22.8911C16.4003 22.4018 16.5389 22.215 16.5389 22.1491C16.5389 22.107 16.7046 21.9125 16.9074 21.7174C17.1095 21.5223 17.2753 21.3355 17.2753 21.3023C17.2753 21.2247 17.5205 20.9787 17.5984 20.9787C17.631 20.9787 17.8105 20.8224 17.9962 20.6323C18.1823 20.4417 18.448 20.2266 18.5872 20.1546C18.7264 20.0826 18.8408 19.9684 18.8408 19.9008C18.8408 19.8332 18.9236 19.7778 19.0247 19.7778C19.1258 19.7778 19.2087 19.7362 19.2087 19.6852C19.2087 19.6348 19.2711 19.5932 19.3468 19.5932C19.423 19.5932 19.4849 19.5516 19.4849 19.5007C19.4849 19.4497 19.5644 19.4081 19.6617 19.4081C19.7583 19.4081 19.8517 19.3771 19.8688 19.3388C19.8854 19.3012 20.1063 19.1715 20.3599 19.0518C20.6129 18.9321 20.8919 18.7969 20.9797 18.7514C21.0681 18.7065 21.2023 18.6694 21.2791 18.6694C21.3559 18.6694 21.4183 18.6278 21.4183 18.5768C21.4183 18.5264 21.5443 18.4849 21.6978 18.4849C21.8608 18.4849 21.9989 18.4272 22.0298 18.3463C22.0641 18.256 22.2077 18.2078 22.4408 18.2078C22.638 18.2078 22.7993 18.1662 22.7993 18.1152C22.7993 18.0642 23.0429 18.0227 23.3462 18.0227C23.6473 18.0227 23.919 17.9811 23.9505 17.9307C23.9837 17.8764 24.5035 17.8381 25.199 17.8381C25.9315 17.8381 26.39 17.8736 26.39 17.9307Z" fill="#FCC404"/>
</svg>
