<svg width="127" height="32" viewBox="0 0 127 32" fill="none" xmlns="http://www.w3.org/2000/svg">
<path d="M6.776 8.06C7.112 7.1 7.724 6.368 8.612 5.864C9.524 5.36 10.532 5.108 11.636 5.108C13.076 5.06 14.312 5.432 15.344 6.224L14.228 10.436C13.22 9.764 12.14 9.452 10.988 9.5C9.836 9.5 8.864 9.872 8.072 10.616C7.304 11.336 6.92 12.332 6.92 13.604V23H1.988V10.76C1.988 9.92 1.88 9.332 1.664 8.996C1.448 8.636 0.98 8.516 0.26 8.636V5.54C1.172 5.396 2.084 5.3 2.996 5.252C3.932 5.204 4.772 5.42 5.516 5.9C6.26 6.38 6.68 7.1 6.776 8.06ZM25.6813 5.216C28.7773 5.216 30.9973 6.152 32.3413 8.024C33.7093 9.896 34.0573 12.344 33.3853 15.368H21.6133C21.7813 17.768 23.3173 19.076 26.2213 19.292C27.2293 19.34 27.9973 19.328 28.5253 19.256C30.1573 19.064 31.5373 18.716 32.6653 18.212L33.2413 21.884C31.0573 22.916 28.8133 23.432 26.5093 23.432C23.5573 23.48 21.1573 22.664 19.3093 20.984C17.4853 19.304 16.5733 17.012 16.5733 14.108C16.6213 11.252 17.5213 9.056 19.2733 7.52C21.0493 5.984 23.1853 5.216 25.6813 5.216ZM25.6813 9.068C24.6733 9.068 23.7973 9.344 23.0533 9.896C22.3093 10.424 21.8413 11.168 21.6493 12.128H29.2813C29.3293 11.072 29.0053 10.304 28.3093 9.824C27.6133 9.32 26.7373 9.068 25.6813 9.068ZM42.0903 8.312C42.5463 7.28 43.2783 6.5 44.2863 5.972C45.2943 5.42 46.3863 5.144 47.5623 5.144C49.9863 5.144 51.8943 6.032 53.2863 7.808C54.6783 9.56 55.3743 11.684 55.3743 14.18C55.3743 15.86 55.0143 17.396 54.2943 18.788C53.5743 20.156 52.6383 21.212 51.4863 21.956C50.3343 22.676 49.0143 23.108 47.5263 23.252C46.0623 23.396 44.5743 23.06 43.0623 22.244V31.892H38.0223V11.516C38.0223 11.42 38.0223 11.252 38.0223 11.012C38.0223 10.748 38.0223 10.58 38.0223 10.508C38.0223 10.412 38.0103 10.268 37.9863 10.076C37.9863 9.884 37.9743 9.764 37.9503 9.716C37.9263 9.644 37.8903 9.548 37.8423 9.428C37.7943 9.284 37.7223 9.188 37.6263 9.14C37.5543 9.092 37.4583 9.044 37.3383 8.996C37.2423 8.924 37.1103 8.888 36.9423 8.888C36.7743 8.888 36.5943 8.888 36.4023 8.888L36.3663 5.54C37.0383 5.396 37.6743 5.324 38.2743 5.324C38.8743 5.3 39.4743 5.36 40.0743 5.504C40.6983 5.624 41.1903 5.924 41.5503 6.404C41.9103 6.884 42.0903 7.52 42.0903 8.312ZM42.9183 13.532V18.068C44.1663 18.716 45.3303 19.028 46.4103 19.004C47.5143 18.956 48.4383 18.5 49.1823 17.636C49.9263 16.748 50.2983 15.596 50.2983 14.18C50.2983 12.932 49.9623 11.852 49.2903 10.94C48.6423 10.028 47.7183 9.572 46.5183 9.572C45.4383 9.596 44.5743 9.992 43.9263 10.76C43.2783 11.528 42.9423 12.452 42.9183 13.532ZM73.6114 7.52C75.4594 9.128 76.3834 11.372 76.3834 14.252C76.3834 17.132 75.4714 19.376 73.6474 20.984C71.8474 22.568 69.7114 23.36 67.2394 23.36C64.7434 23.36 62.5714 22.568 60.7234 20.984C58.8994 19.376 57.9874 17.132 57.9874 14.252C57.9874 11.42 58.8874 9.2 60.6874 7.592C62.4874 5.984 64.6234 5.168 67.0954 5.144C69.6154 5.12 71.7874 5.912 73.6114 7.52ZM64.2514 10.796C63.4114 11.612 62.9914 12.764 62.9914 14.252C62.9914 15.74 63.3994 16.904 64.2154 17.744C65.0314 18.56 66.0034 18.968 67.1314 18.968C68.2834 18.992 69.2794 18.584 70.1194 17.744C70.9594 16.904 71.3794 15.74 71.3794 14.252C71.3794 12.788 70.9714 11.648 70.1554 10.832C69.3394 9.992 68.3674 9.572 67.2394 9.572C66.0874 9.572 65.0914 9.98 64.2514 10.796ZM85.4557 8.06C85.7917 7.1 86.4037 6.368 87.2917 5.864C88.2037 5.36 89.2117 5.108 90.3157 5.108C91.7557 5.06 92.9917 5.432 94.0237 6.224L92.9077 10.436C91.8997 9.764 90.8197 9.452 89.6677 9.5C88.5157 9.5 87.5437 9.872 86.7517 10.616C85.9837 11.336 85.5997 12.332 85.5997 13.604V23H80.6677V10.76C80.6677 9.92 80.5597 9.332 80.3437 8.996C80.1277 8.636 79.6597 8.516 78.9397 8.636V5.54C79.8517 5.396 80.7637 5.3 81.6757 5.252C82.6117 5.204 83.4517 5.42 84.1957 5.9C84.9397 6.38 85.3597 7.1 85.4557 8.06ZM103.308 0.283998V5.684H108.96V9.464H103.308V16.196C103.308 17.324 103.596 18.176 104.172 18.752C104.772 19.304 105.504 19.556 106.368 19.508C107.232 19.436 108.168 19.244 109.176 18.932L109.644 22.748C108.084 23.18 106.644 23.408 105.324 23.432C104.028 23.456 102.84 23.264 101.76 22.856C100.704 22.424 99.8758 21.656 99.2758 20.552C98.6758 19.448 98.3758 18.032 98.3758 16.304V9.464L95.0998 9.14V5.684H98.7358L99.2758 0.283998H103.308ZM118.327 8.06C118.663 7.1 119.275 6.368 120.163 5.864C121.075 5.36 122.083 5.108 123.187 5.108C124.627 5.06 125.863 5.432 126.895 6.224L125.779 10.436C124.771 9.764 123.691 9.452 122.539 9.5C121.387 9.5 120.415 9.872 119.623 10.616C118.855 11.336 118.471 12.332 118.471 13.604V23H113.539V10.76C113.539 9.92 113.431 9.332 113.215 8.996C112.999 8.636 112.531 8.516 111.811 8.636V5.54C112.723 5.396 113.635 5.3 114.547 5.252C115.483 5.204 116.323 5.42 117.067 5.9C117.811 6.38 118.231 7.1 118.327 8.06Z" fill="#FCC404"/>
</svg>
