<svg width="134" height="75" viewBox="0 0 134 75" fill="none" xmlns="http://www.w3.org/2000/svg">
<g clip-path="url(#clip0_457_987)">
<path d="M35 68H5V37C21.5678 37 35 50.6849 35 67.5642V68Z" fill="#442872"/>
<path d="M39.4261 68H35.5739C18.6864 68 5 54.3436 5 37.5C5 20.6564 18.6895 7 35.5739 7H70V37.5C70 54.3436 56.3136 68 39.4261 68Z" fill="#8033FF"/>
<path fill-rule="evenodd" clip-rule="evenodd" d="M68.9868 45.1128H73.6465L75.0039 47.9351H81.2607V47.1241L70.7333 25H69.9999V36.2328L71.7264 40.1495H69.8121C69.6568 41.4999 69.3946 43.3646 68.9868 45.1128ZM104.606 48L92.4237 36.2243V47.9351H86.3654V25.1298H88.2524L100.336 36.3216V25.2271H106.394V48H104.606ZM134 47.0592L129.464 39.8575C131.716 38.3437 132.863 36.1378 132.907 33.2398C132.907 31.0771 132.168 29.1956 130.689 27.5952C129.233 25.9948 127.191 25.1946 124.565 25.1946C124.565 25.173 122.866 25.173 119.467 25.1946H114.369V47.9027H120.427V40.7983H123.605L127.577 47.9027H134V47.0592ZM124.532 35.9647H120.327V30.3526H124.532C125.348 30.3526 125.966 30.6229 126.386 31.1636C126.827 31.6827 127.048 32.3315 127.048 33.11C127.048 33.8886 126.827 34.559 126.386 35.1213C125.944 35.6836 125.326 35.9647 124.532 35.9647Z" fill="white"/>
<path fill-rule="evenodd" clip-rule="evenodd" d="M72.4881 25.5969L72.2017 25H69.3975L58.6815 47.1241V47.9351H65.0577L66.393 45.1128H71.6989C72.0949 43.6098 72.4246 41.9438 72.6177 40.1495H68.3626L70.7662 34.6671L72.7168 39.0553C72.731 38.8622 72.7436 38.6677 72.7544 38.472C72.7544 34.6544 72.6093 29.3557 72.4881 25.5969ZM22.1092 47.9027H16V25.1946H21.141C24.5684 25.173 26.2932 25.173 26.3155 25.1946C28.9639 25.1946 31.0337 26.0489 32.5248 27.7574C34.0159 29.4443 34.7392 31.4339 34.6947 33.7264C34.6947 35.9756 33.9491 37.922 32.458 39.5656C30.9891 41.2092 28.9416 42.031 26.3155 42.031H22.1092V47.9027ZM22.009 36.8731H26.3155C27.0722 36.8731 27.6842 36.5487 28.1516 35.8999C28.6189 35.2294 28.8526 34.4509 28.8526 33.5642C28.8526 32.6991 28.6301 31.953 28.1849 31.3258C27.7398 30.677 27.1167 30.3526 26.3155 30.3526H22.009V36.8731ZM47.0533 25.2271V42.615H55.4993V47.9351H40.9442V25.2271H47.0533Z" fill="white"/>
<g filter="url(#filter0_d_457_987)">
<path d="M6.5 73C10.0899 73 13 70.0899 13 66.5C13 62.9102 10.0899 60 6.5 60C2.91015 60 0 62.9102 0 66.5C0 70.0899 2.91015 73 6.5 73Z" fill="#8033FF"/>
</g>
<path d="M8.36311 69.1216C9.53453 67.9499 9.53453 66.0501 8.36311 64.8784C7.1917 63.7067 5.29245 63.7067 4.12104 64.8784C2.94962 66.0501 2.94962 67.9499 4.12104 69.1216C5.29245 70.2933 7.1917 70.2933 8.36311 69.1216Z" fill="white"/>
<g filter="url(#filter1_d_457_987)">
<path d="M69.5 14C73.0899 14 76 11.0899 76 7.5C76 3.91015 73.0899 1 69.5 1C65.9101 1 63 3.91015 63 7.5C63 11.0899 65.9101 14 69.5 14Z" fill="#8033FF"/>
</g>
<path d="M71.3631 10.1216C72.5345 8.94987 72.5345 7.05013 71.3631 5.8784C70.1917 4.70667 68.2925 4.70667 67.121 5.8784C65.9496 7.05012 65.9496 8.94988 67.121 10.1216C68.2925 11.2933 70.1917 11.2933 71.3631 10.1216Z" fill="white"/>
</g>
<defs>
<filter id="filter0_d_457_987" x="-17" y="46" width="49" height="49" filterUnits="userSpaceOnUse" color-interpolation-filters="sRGB">
<feFlood flood-opacity="0" result="BackgroundImageFix"/>
<feColorMatrix in="SourceAlpha" type="matrix" values="0 0 0 0 0 0 0 0 0 0 0 0 0 0 0 0 0 0 127 0" result="hardAlpha"/>
<feOffset dx="1" dy="4"/>
<feGaussianBlur stdDeviation="9"/>
<feColorMatrix type="matrix" values="0 0 0 0 0 0 0 0 0 0 0 0 0 0 0 0 0 0 0.25 0"/>
<feBlend mode="normal" in2="BackgroundImageFix" result="effect1_dropShadow_457_987"/>
<feBlend mode="normal" in="SourceGraphic" in2="effect1_dropShadow_457_987" result="shape"/>
</filter>
<filter id="filter1_d_457_987" x="46" y="-13" width="49" height="49" filterUnits="userSpaceOnUse" color-interpolation-filters="sRGB">
<feFlood flood-opacity="0" result="BackgroundImageFix"/>
<feColorMatrix in="SourceAlpha" type="matrix" values="0 0 0 0 0 0 0 0 0 0 0 0 0 0 0 0 0 0 127 0" result="hardAlpha"/>
<feOffset dx="1" dy="4"/>
<feGaussianBlur stdDeviation="9"/>
<feColorMatrix type="matrix" values="0 0 0 0 0 0 0 0 0 0 0 0 0 0 0 0 0 0 0.25 0"/>
<feBlend mode="normal" in2="BackgroundImageFix" result="effect1_dropShadow_457_987"/>
<feBlend mode="normal" in="SourceGraphic" in2="effect1_dropShadow_457_987" result="shape"/>
</filter>
<clipPath id="clip0_457_987">
<rect width="134" height="75" fill="white"/>
</clipPath>
</defs>
</svg>
