<svg width="165" height="27" viewBox="0 0 165 27" fill="none" xmlns="http://www.w3.org/2000/svg">
<path d="M16.108 16.82L21.796 25.208V25.964H16.036L10.852 17.648H6.352V25.964H0.952V0.763999H11.716C14.476 0.763999 16.648 1.616 18.232 3.32C19.816 5 20.608 7.028 20.608 9.404C20.608 11.012 20.212 12.476 19.42 13.796C18.628 15.116 17.524 16.124 16.108 16.82ZM6.28 13.22H11.68C12.784 13.22 13.684 12.848 14.38 12.104C15.076 11.336 15.412 10.4 15.388 9.296C15.388 8.216 15.052 7.316 14.38 6.596C13.708 5.852 12.808 5.48 11.68 5.48H6.28V13.22ZM41.2506 0.799998V5.516H31.2426V10.628H40.6026V15.344H31.2426V21.104H41.5386V26H25.8066V0.799998H41.2506ZM51.8442 25.964H46.4442V0.763999H57.2082C59.9922 0.763999 62.1762 1.664 63.7602 3.464C65.3682 5.264 66.1722 7.424 66.1722 9.944C66.1722 12.416 65.3682 14.516 63.7602 16.244C62.1522 17.972 59.9682 18.836 57.2082 18.836H51.8442V25.964ZM51.7362 14.228H57.2082C58.3362 14.228 59.2482 13.808 59.9442 12.968C60.6642 12.104 61.0242 11.048 61.0242 9.8C61.0242 8.576 60.6762 7.556 59.9802 6.74C59.2842 5.9 58.3602 5.48 57.2082 5.48C57.2082 5.456 56.2962 5.456 54.4722 5.48H51.7362V14.228ZM94.334 13.4C94.334 17.24 93.134 20.372 90.734 22.796C88.334 25.22 85.226 26.432 81.41 26.432C77.834 26.432 74.798 25.28 72.302 22.976C69.83 20.648 68.594 17.456 68.594 13.4C68.594 10.688 69.206 8.324 70.43 6.308C71.678 4.292 73.262 2.804 75.182 1.844C77.126 0.883999 79.238 0.403999 81.518 0.403999C83.198 0.403999 84.794 0.691999 86.306 1.268C87.818 1.844 89.174 2.66 90.374 3.716C91.598 4.772 92.558 6.14 93.254 7.82C93.974 9.5 94.334 11.36 94.334 13.4ZM74.03 13.4C74.03 16.016 74.738 18.02 76.154 19.412C77.57 20.804 79.346 21.5 81.482 21.5C83.594 21.5 85.37 20.804 86.81 19.412C88.25 18.02 88.97 16.016 88.97 13.4C88.97 10.856 88.25 8.888 86.81 7.496C85.37 6.08 83.606 5.372 81.518 5.372C79.406 5.372 77.63 6.08 76.19 7.496C74.75 8.888 74.03 10.856 74.03 13.4ZM113.948 16.82L119.636 25.208V25.964H113.876L108.692 17.648H104.192V25.964H98.7918V0.763999H109.556C112.316 0.763999 114.488 1.616 116.072 3.32C117.656 5 118.448 7.028 118.448 9.404C118.448 11.012 118.052 12.476 117.26 13.796C116.468 15.116 115.364 16.124 113.948 16.82ZM104.12 13.22H109.52C110.624 13.22 111.524 12.848 112.22 12.104C112.916 11.336 113.252 10.4 113.228 9.296C113.228 8.216 112.892 7.316 112.22 6.596C111.548 5.852 110.648 5.48 109.52 5.48H104.12V13.22ZM127.759 5.48H121.027V0.799998H139.675V5.48H132.979V26H127.759V5.48ZM158.421 16.82L164.109 25.208V25.964H158.349L153.165 17.648H148.665V25.964H143.265V0.763999H154.029C156.789 0.763999 158.961 1.616 160.545 3.32C162.129 5 162.921 7.028 162.921 9.404C162.921 11.012 162.525 12.476 161.733 13.796C160.941 15.116 159.837 16.124 158.421 16.82ZM148.593 13.22H153.993C155.097 13.22 155.997 12.848 156.693 12.104C157.389 11.336 157.725 10.4 157.701 9.296C157.701 8.216 157.365 7.316 156.693 6.596C156.021 5.852 155.121 5.48 153.993 5.48H148.593V13.22Z" fill="#FCC404"/>
</svg>
